<svg width="7" height="11" viewBox="0 0 7 11" fill="none" xmlns="http://www.w3.org/2000/svg">
<path fill-rule="evenodd" clip-rule="evenodd" d="M0.219838 1.28221C0.0790079 1.14128 -7.02808e-05 0.950181 4.68689e-08 0.750947C7.03745e-05 0.551713 0.0792832 0.360668 0.220213 0.219838C0.361142 0.0790077 0.552244 -7.02778e-05 0.751478 4.68651e-08C0.950712 7.03715e-05 1.14176 0.0792832 1.28259 0.220213L6.00759 4.94521C6.14819 5.08586 6.22718 5.27659 6.22718 5.47546C6.22718 5.67434 6.14819 5.86507 6.00759 6.00571L1.28259 10.7307C1.14176 10.8715 0.950751 10.9507 0.751588 10.9507C0.552424 10.9507 0.361418 10.8715 0.220588 10.7307C0.0797578 10.5899 0.000640202 10.3989 0.000640201 10.1997C0.000640199 10.0005 0.0797578 9.80954 0.220588 9.66871L4.41309 5.47546L0.219838 1.28221Z" fill="#09253F" fill-opacity="0.7"/>
</svg>
