<svg width="46" height="46" viewBox="0 0 46 46" fill="none" xmlns="http://www.w3.org/2000/svg">
<g clip-path="url(#clip0_2052_1842)">
<path d="M0.597083 41.933C-0.683259 43.8692 0.160043 44.8545 2.47451 44.1155L17.4262 39.3494C18.1095 39.1317 18.8481 38.788 19.5806 38.3641L20.3993 37.6881C15.8565 33.134 12.3295 28.1673 11.2522 25.7671L0.597083 41.933Z" fill="#6CC5D9"/>
<path d="M43.5501 1.95933L27.1827 6.78274C26.7272 6.92022 26.247 7.12072 25.7608 7.35559L27.8967 16.8649L27.749 16.6587L25.1021 11.7379C24.0064 9.69856 21.2734 7.32695 19.0143 6.45049L3.15779 0.3267C0.898724 -0.544035 2.14024e-05 0.383985 1.1511 2.38897L19.5376 34.3713C20.6886 36.3763 23.4648 38.7651 25.6931 39.6873L40.1462 45.6393C42.3806 46.5616 43.3162 45.645 42.2205 43.6171L31.5839 23.8079L45.3537 4.17054C46.6894 2.2744 45.8769 1.27191 43.5501 1.95933Z" fill="#6CC5D9"/>
</g>
<defs>
<clipPath id="clip0_2052_1842">
<rect width="46" height="46" fill="white"/>
</clipPath>
</defs>
</svg>
