<svg width="140" height="26" viewBox="0 0 140 26" fill="none" xmlns="http://www.w3.org/2000/svg">
<g clip-path="url(#clip0_2070_2038)">
<path d="M37.3897 14.5861C37.3897 20.3424 35.5144 22.4652 30.3442 22.4652C25.1739 22.4652 23.2986 20.3424 23.2986 14.5861C23.2986 8.82982 25.2 6.70703 30.3442 6.70703C35.4884 6.70703 37.3897 8.85587 37.3897 14.5861ZM26.0335 14.5861C26.0335 18.9489 27.0753 20.2512 30.3442 20.2512C33.613 20.2512 34.6809 18.9619 34.6809 14.5861C34.6809 10.2103 33.6 8.92098 30.3442 8.92098C27.0884 8.92098 26.0335 10.2103 26.0335 14.5861Z" fill="#323A3D"/>
<path d="M53.2 9.16843H52.3405C50.6475 9.16843 49.1107 9.87168 46.7405 11.0698V22.0484H44.1228V7.07168H46.1544L46.4279 9.44191C48.5768 7.72285 50.7907 6.70703 52.8223 6.70703H53.4995L53.187 9.16843H53.2Z" fill="#323A3D"/>
<path d="M72.0707 14.5861C72.0707 20.3424 70.1954 22.4652 65.0251 22.4652C59.8549 22.4652 57.9796 20.3424 57.9796 14.5861C57.9796 8.82982 59.8809 6.70703 65.0251 6.70703C70.1693 6.70703 72.0707 8.85587 72.0707 14.5861ZM60.7144 14.5861C60.7144 18.9489 61.7563 20.2512 65.0251 20.2512C68.294 20.2512 69.3619 18.9619 69.3619 14.5861C69.3619 10.2103 68.2809 8.92098 65.0251 8.92098C61.7693 8.92098 60.7144 10.2103 60.7144 14.5861Z" fill="#323A3D"/>
<path d="M90.0949 7.1627L89.8735 9.0641C87.9982 8.99898 86.0577 8.90782 84.1824 8.90782C81.4084 8.88177 80.4968 8.93386 80.4968 10.8092C80.4968 12.385 81.2391 12.6194 82.6847 12.958L87.0475 13.9478C89.4177 14.5339 90.5247 15.5236 90.5247 18.0762C90.5247 21.7618 88.467 22.3869 84.1303 22.3869C83.0493 22.3869 80.8093 22.3608 78.2568 21.9571L78.4391 20.0557C79.9107 20.1469 81.6689 20.212 83.6093 20.1729C86.9693 20.1729 88.0112 19.8604 88.0112 18.0762C88.0112 16.6046 87.0865 16.318 85.641 15.9794L81.3303 14.9897C78.8949 14.4036 77.9442 13.2706 77.9442 10.8092C77.9442 7.332 79.7024 6.62875 83.7917 6.68084C85.7582 6.70689 88.2586 6.86317 90.0949 7.13665V7.1627Z" fill="#6CC5D9"/>
<path d="M110.45 14.5861C110.45 20.3424 108.575 22.4652 103.405 22.4652C98.2344 22.4652 96.3591 20.3424 96.3591 14.5861C96.3591 8.82982 98.2605 6.70703 103.405 6.70703C108.549 6.70703 110.45 8.85587 110.45 14.5861ZM99.094 14.5861C99.094 18.9489 100.136 20.2512 103.405 20.2512C106.673 20.2512 107.741 18.9619 107.741 14.5861C107.741 10.2103 106.66 8.92098 103.405 8.92098C100.149 8.92098 99.094 10.2103 99.094 14.5861Z" fill="#6CC5D9"/>
<path d="M123.617 2.14884C121.65 2.14884 120.934 2.85209 120.934 4.67535V7.07163H125.726V9.1293H120.934V22.0484H118.316V9.14233H115.607V7.24093L118.316 7.08465V4.40186C118.316 1.60186 119.488 0 122.692 0C123.682 0 125.74 0.0651163 126.912 0.208372L126.69 2.14884H123.617Z" fill="#6CC5D9"/>
<path d="M135.233 17.9329C135.233 19.3784 135.78 19.9254 137.265 19.9254H139.544L139.857 21.931C138.867 22.2045 137.213 22.3347 136.471 22.3347C133.944 22.3347 132.629 20.8891 132.629 18.2715V9.12914H129.92V7.22774L132.629 7.07146V2.64355H135.246V7.07146H140.013V9.12914H135.246V17.9329H135.233Z" fill="#6CC5D9"/>
<path d="M0.273492 23.898C-0.325578 24.8747 0.0651198 25.3696 1.14605 24.992L8.13954 22.5957C8.4521 22.4915 8.80372 22.3092 9.14233 22.1008L9.52 21.7622C7.39721 19.4831 5.74326 16.9826 5.24838 15.7715L0.273492 23.898Z" fill="#323A3D"/>
<path d="M20.3553 3.81603L12.7107 6.23835C12.5023 6.30347 12.2679 6.40765 12.0465 6.52486L13.0493 11.3044L12.9842 11.2002L11.747 8.72579C11.2391 7.70998 9.94976 6.51184 8.9079 6.06905L1.47162 2.99556C0.416735 2.55277 -9.18767e-06 3.02161 0.533944 4.03742L9.12929 20.0951C9.66325 21.0979 10.9656 22.309 12.0074 22.7649L18.7665 25.7602C19.8084 26.216 20.2512 25.7602 19.7302 24.7444L14.7553 14.7946L21.1888 4.923C21.8139 3.97231 21.4363 3.4644 20.3423 3.81603H20.3553Z" fill="#323A3D"/>
</g>
<defs>
<clipPath id="clip0_2070_2038">
<rect width="140" height="25.9293" fill="white"/>
</clipPath>
</defs>
</svg>
