<svg width="42" height="42" viewBox="0 0 42 42" fill="none" xmlns="http://www.w3.org/2000/svg">
<path d="M24.15 41.895H17.745L16.905 36.33C15.54 35.91 14.175 35.385 12.915 34.65L8.4 38.01L3.885 33.495L7.245 28.98C6.51 27.72 5.985 26.355 5.565 24.99L0 24.15V17.745L5.565 16.905C5.985 15.54 6.51 14.175 7.245 12.915L3.885 8.4L8.4 3.885L12.915 7.245C14.175 6.51 15.54 5.985 16.905 5.565L17.745 0H24.15L24.99 5.565C26.355 5.88 27.72 6.51 28.98 7.245L33.495 3.885L38.01 8.4L34.755 12.81C35.49 14.07 36.015 15.435 36.435 16.8L42 17.64V24.045L36.435 24.885C36.12 26.25 35.49 27.615 34.755 28.875L38.115 33.39L33.6 38.01L29.085 34.65C27.825 35.385 26.46 35.91 25.095 36.33L24.15 41.895ZM21 13.86C17.115 13.86 13.965 17.01 13.965 20.895C13.965 24.78 17.115 27.93 21 27.93C24.885 27.93 28.035 24.78 28.035 20.895C28.035 17.01 24.885 13.86 21 13.86Z" fill="#6CBE45"/>
</svg>
