<svg width="14" height="14" viewBox="0 0 14 14" fill="none" xmlns="http://www.w3.org/2000/svg">
<path d="M12.98 5.40398C12.7685 5.28108 12.5786 5.12453 12.4175 4.94051C12.4338 4.6843 12.4949 4.43293 12.5979 4.19777C12.7873 3.66334 13.0014 3.05796 12.6577 2.58732C12.314 2.11668 11.665 2.13165 11.0955 2.14467C10.8438 2.17057 10.5895 2.1534 10.3436 2.0939C10.2126 1.88072 10.119 1.64669 10.067 1.40194C9.90552 0.851884 9.7213 0.230226 9.15562 0.0440543C8.61013 -0.131702 8.10499 0.254962 7.65844 0.594759C7.46575 0.770723 7.24248 0.909933 6.99967 1.00551C6.75433 0.910712 6.52858 0.771465 6.33375 0.594759C5.8885 0.256915 5.38532 -0.133655 4.83722 0.0447053C4.27284 0.228273 4.08862 0.851884 3.92588 1.40194C3.87389 1.64589 3.78125 1.87937 3.65183 2.0926C3.40546 2.15194 3.15088 2.16954 2.89868 2.14467C2.32715 2.12905 1.68336 2.11213 1.3364 2.58732C0.989445 3.06251 1.20621 3.66334 1.39629 4.19712C1.50073 4.43193 1.56266 4.6834 1.57921 4.93986C1.41847 5.12412 1.22872 5.2809 1.01744 5.40398C0.54094 5.72946 0 6.09985 0 6.70133C0 7.30281 0.54094 7.6719 1.01744 7.99867C1.22867 8.12156 1.41842 8.27811 1.57921 8.46215C1.5644 8.71851 1.50423 8.9702 1.4015 9.20554C1.21272 9.73932 0.99921 10.3447 1.34226 10.8153C1.68531 11.286 2.33236 11.271 2.90454 11.258C3.15644 11.2321 3.41091 11.2492 3.65704 11.3088C3.78748 11.5222 3.8808 11.7561 3.93304 12.0007C4.09448 12.5508 4.2787 13.1724 4.84438 13.3586C4.93507 13.3877 5.0297 13.4026 5.12494 13.4029C5.58269 13.3372 6.00814 13.129 6.34091 12.8079C6.5336 12.6319 6.75686 12.4927 6.99967 12.3972C7.24502 12.4919 7.47077 12.6312 7.6656 12.8079C8.1115 13.1483 8.61664 13.537 9.16278 13.358C9.72716 13.1744 9.91138 12.5508 10.0741 12.0014C10.1263 11.757 10.2196 11.5232 10.3501 11.3101C10.5955 11.2503 10.8493 11.2327 11.1007 11.258C11.6722 11.2717 12.316 11.2905 12.6629 10.8153C13.0099 10.3401 12.7931 9.73932 12.6031 9.20489C12.4993 8.97029 12.4374 8.71937 12.4201 8.46345C12.581 8.27902 12.771 8.12223 12.9826 7.99933C13.4591 7.67385 14 7.30281 14 6.70133C14 6.09985 13.4571 5.73011 12.98 5.40398Z" fill="#4BAE4F"/>
<path d="M6.34874 8.49129C6.28462 8.49141 6.22111 8.47882 6.16189 8.45424C6.10267 8.42966 6.04892 8.39358 6.00373 8.34808L4.70183 7.04618C4.61559 6.95363 4.56865 6.83122 4.57088 6.70474C4.57311 6.57826 4.62435 6.45759 4.7138 6.36814C4.80324 6.27869 4.92392 6.22745 5.0504 6.22522C5.17688 6.22299 5.29929 6.26994 5.39184 6.35617L6.3943 7.35864L8.65961 5.65966C8.7632 5.58197 8.8934 5.54861 9.02159 5.56692C9.14977 5.58523 9.26542 5.65371 9.34311 5.7573C9.4208 5.86088 9.45416 5.99109 9.43585 6.11927C9.41754 6.24745 9.34906 6.36311 9.24547 6.4408L6.64167 8.39365C6.55714 8.45699 6.45437 8.49125 6.34874 8.49129Z" fill="white"/>
</svg>
