<svg width="42" height="46" viewBox="0 0 42 46" fill="none" xmlns="http://www.w3.org/2000/svg">
<path d="M0.548633 41.1181C-0.623009 43.0071 0.142145 43.9875 2.27023 43.2462L15.9234 38.5836C16.5451 38.3684 17.2146 38.0336 17.8841 37.6032L18.6254 36.9337C14.4888 32.4623 11.2608 27.5845 10.2804 25.2412L0.548633 41.1181Z" fill="#323A3D"/>
<path d="M39.7626 1.92729L24.8182 6.66167C24.4117 6.78123 23.9574 6.99643 23.527 7.21163L25.4638 16.5369L25.3203 16.3456L22.9053 11.5156C21.901 9.50709 19.4143 7.18772 17.3579 6.32692L2.86784 0.325247C0.811494 -0.53555 -0.00148151 0.37307 1.0506 2.33378L17.8362 33.7051C18.8882 35.6658 21.4228 38.0091 23.4553 38.9177L36.6541 44.752C38.6866 45.6606 39.5474 44.752 38.5431 42.7674L28.8352 23.3277L41.4124 4.07928C42.6319 2.21422 41.8907 1.23387 39.7626 1.90338V1.92729Z" fill="#323A3D"/>
</svg>
